<svg width="143" height="185" viewBox="0 0 143 185" fill="none" xmlns="http://www.w3.org/2000/svg">
<circle cx="71.5" cy="71.5" r="71.5" fill="#F1F1F1"/>
<rect x="43.4505" y="70.0427" width="70" height="98" rx="7" transform="rotate(2.5 43.4505 70.0427)" fill="#EEEEEE" stroke="#999999" stroke-width="2"/>
<rect x="1.83591" y="64.1807" width="74" height="102" rx="9" transform="rotate(-7.5 1.83591 64.1807)" fill="#FAFAFA" stroke="#999999" stroke-width="2"/>
<path d="M4.0021 72.9732C3.42539 68.5927 6.50897 64.5741 10.8894 63.9974L66.4104 56.6879C70.7908 56.1112 74.8094 59.1948 75.3861 63.5753L77.344 78.4469L5.95999 87.8448L4.0021 72.9732Z" fill="#EEEEEE"/>
<rect x="89.8662" y="58.643" width="3" height="10" rx="1.5" transform="rotate(82.5 89.8662 58.643)" fill="#999999"/>
<rect x="62.4696" y="42.0773" width="3" height="10" rx="1.5" transform="rotate(-7.5 62.4696 42.0773)" fill="#999999"/>
<rect x="80.0472" y="44.8063" width="3" height="10" rx="1.5" transform="rotate(37.5 80.0472 44.8063)" fill="#999999"/>
<rect x="13.4222" y="90.8969" width="58" height="4" rx="2" transform="rotate(-7.5 13.4222 90.8969)" fill="#DCDCDC"/>
<rect x="16.0327" y="110.726" width="58" height="4" rx="2" transform="rotate(-7.5 16.0327 110.726)" fill="#DCDCDC"/>
<rect x="18.6432" y="130.555" width="58" height="4" rx="2" transform="rotate(-7.5 18.6432 130.555)" fill="#DCDCDC"/>
<rect x="14.4664" y="98.8285" width="21" height="4" rx="2" transform="rotate(-7.5 14.4664 98.8285)" fill="#EEEEEE"/>
<rect x="17.0769" y="118.657" width="21" height="4" rx="2" transform="rotate(-7.5 17.0769 118.657)" fill="#EEEEEE"/>
<rect x="19.6875" y="138.486" width="21" height="4" rx="2" transform="rotate(-7.5 19.6875 138.486)" fill="#EEEEEE"/>
</svg>
